<?xml version="1.0" encoding="UTF-8" standalone="no"?>
<!-- Created with Inkscape (http://www.inkscape.org/) -->

<svg
   width="34.56963mm"
   height="34.909698mm"
   viewBox="0 0 34.56963 34.909699"
   version="1.1"
   id="svg5"
   xml:space="preserve"
   xmlns:xlink="http://www.w3.org/1999/xlink"
   xmlns="http://www.w3.org/2000/svg"
   xmlns:svg="http://www.w3.org/2000/svg"><defs
     id="defs2"><linearGradient
       id="linearGradient32631"><stop
         style="stop-color:#091343;stop-opacity:1;"
         offset="0"
         id="stop32627" /><stop
         style="stop-color:#7075ff;stop-opacity:1;"
         offset="1"
         id="stop32629" /></linearGradient><linearGradient
       xlink:href="#linearGradient32631"
       id="linearGradient35539"
       gradientUnits="userSpaceOnUse"
       x1="83.761292"
       y1="16.08744"
       x2="42.136906"
       y2="65.220543"
       gradientTransform="matrix(0.53703847,0,0,0.53703847,92.296584,10.337222)" /><linearGradient
       xlink:href="#linearGradient32631"
       id="linearGradient35541"
       gradientUnits="userSpaceOnUse"
       x1="83.761292"
       y1="16.08744"
       x2="42.136906"
       y2="65.220543"
       gradientTransform="matrix(0.53703847,0,0,0.53703847,92.296584,10.337222)" /><linearGradient
       xlink:href="#linearGradient32631"
       id="linearGradient35543"
       gradientUnits="userSpaceOnUse"
       x1="83.761292"
       y1="16.08744"
       x2="42.136906"
       y2="65.220543"
       gradientTransform="matrix(0.53703847,0,0,0.53703847,92.296584,10.337222)" /><linearGradient
       xlink:href="#linearGradient32631"
       id="linearGradient35545"
       gradientUnits="userSpaceOnUse"
       x1="83.761292"
       y1="16.08744"
       x2="42.136906"
       y2="65.220543"
       gradientTransform="matrix(0.53703847,0,0,0.53703847,92.296584,10.337222)" /><linearGradient
       xlink:href="#linearGradient32631"
       id="linearGradient35547"
       gradientUnits="userSpaceOnUse"
       x1="83.761292"
       y1="16.08744"
       x2="42.136906"
       y2="65.220543"
       gradientTransform="matrix(0.53703847,0,0,0.53703847,92.296584,10.337222)" /><linearGradient
       xlink:href="#linearGradient32631"
       id="linearGradient35549"
       gradientUnits="userSpaceOnUse"
       x1="83.761292"
       y1="16.08744"
       x2="42.136906"
       y2="65.220543"
       gradientTransform="matrix(0.53703847,0,0,0.53703847,92.296584,10.337222)" /><linearGradient
       xlink:href="#linearGradient32631"
       id="linearGradient35551"
       gradientUnits="userSpaceOnUse"
       x1="83.761292"
       y1="16.08744"
       x2="42.136906"
       y2="65.220543"
       gradientTransform="matrix(0.53703847,0,0,0.53703847,92.296584,10.337222)" /><linearGradient
       xlink:href="#linearGradient32631"
       id="linearGradient35553"
       gradientUnits="userSpaceOnUse"
       x1="83.761292"
       y1="16.08744"
       x2="42.136906"
       y2="65.220543"
       gradientTransform="matrix(0.53703847,0,0,0.53703847,92.296584,10.337222)" /><linearGradient
       xlink:href="#linearGradient32631"
       id="linearGradient35555"
       gradientUnits="userSpaceOnUse"
       x1="83.761292"
       y1="16.08744"
       x2="42.136906"
       y2="65.220543"
       gradientTransform="matrix(0.53703847,0,0,0.53703847,92.296584,10.337222)" /><linearGradient
       xlink:href="#linearGradient32631"
       id="linearGradient35557"
       gradientUnits="userSpaceOnUse"
       x1="83.761292"
       y1="16.08744"
       x2="42.136906"
       y2="65.220543"
       gradientTransform="matrix(0.53703847,0,0,0.53703847,92.296584,10.337222)" /><linearGradient
       xlink:href="#linearGradient32631"
       id="linearGradient35559"
       gradientUnits="userSpaceOnUse"
       x1="83.761292"
       y1="16.08744"
       x2="42.136906"
       y2="65.220543"
       gradientTransform="matrix(0.53703847,0,0,0.53703847,92.296584,10.337222)" /><linearGradient
       xlink:href="#linearGradient32631"
       id="linearGradient35561"
       gradientUnits="userSpaceOnUse"
       x1="83.761292"
       y1="16.08744"
       x2="42.136906"
       y2="65.220543"
       gradientTransform="matrix(0.53703847,0,0,0.53703847,92.296584,10.337222)" /><linearGradient
       xlink:href="#linearGradient32631"
       id="linearGradient35563"
       gradientUnits="userSpaceOnUse"
       x1="83.761292"
       y1="16.08744"
       x2="42.136906"
       y2="65.220543"
       gradientTransform="matrix(0.53703847,0,0,0.53703847,92.296584,10.337222)" /><linearGradient
       xlink:href="#linearGradient32631"
       id="linearGradient35565"
       gradientUnits="userSpaceOnUse"
       x1="83.761292"
       y1="16.08744"
       x2="42.136906"
       y2="65.220543"
       gradientTransform="matrix(0.53703847,0,0,0.53703847,92.296584,10.337222)" /><linearGradient
       xlink:href="#linearGradient32631"
       id="linearGradient35567"
       gradientUnits="userSpaceOnUse"
       x1="83.761292"
       y1="16.08744"
       x2="42.136906"
       y2="65.220543"
       gradientTransform="matrix(0.53703847,0,0,0.53703847,92.296584,10.337222)" /><linearGradient
       xlink:href="#linearGradient32631"
       id="linearGradient35569"
       gradientUnits="userSpaceOnUse"
       x1="83.761292"
       y1="16.08744"
       x2="42.136906"
       y2="65.220543"
       gradientTransform="matrix(0.53703847,0,0,0.53703847,92.296584,10.337222)" /><linearGradient
       xlink:href="#linearGradient32631"
       id="linearGradient35571"
       gradientUnits="userSpaceOnUse"
       x1="83.761292"
       y1="16.08744"
       x2="42.136906"
       y2="65.220543"
       gradientTransform="matrix(0.53703847,0,0,0.53703847,92.296584,10.337222)" /><linearGradient
       xlink:href="#linearGradient32631"
       id="linearGradient35573"
       gradientUnits="userSpaceOnUse"
       x1="83.761292"
       y1="16.08744"
       x2="42.136906"
       y2="65.220543"
       gradientTransform="matrix(0.53703847,0,0,0.53703847,-92.296584,10.337222)" /><linearGradient
       xlink:href="#linearGradient32631"
       id="linearGradient35575"
       gradientUnits="userSpaceOnUse"
       x1="83.761292"
       y1="16.08744"
       x2="42.136906"
       y2="65.220543"
       gradientTransform="matrix(0.53703847,0,0,0.53703847,-92.296584,10.337222)" /><linearGradient
       xlink:href="#linearGradient32631"
       id="linearGradient35577"
       gradientUnits="userSpaceOnUse"
       x1="83.761292"
       y1="16.08744"
       x2="42.136906"
       y2="65.220543"
       gradientTransform="matrix(0.53703847,0,0,0.53703847,-92.296584,10.337222)" /><linearGradient
       xlink:href="#linearGradient32631"
       id="linearGradient35579"
       gradientUnits="userSpaceOnUse"
       x1="83.761292"
       y1="16.08744"
       x2="42.136906"
       y2="65.220543"
       gradientTransform="matrix(0.53703847,0,0,0.53703847,-92.296584,10.337222)" /><linearGradient
       xlink:href="#linearGradient32631"
       id="linearGradient35581"
       gradientUnits="userSpaceOnUse"
       x1="83.761292"
       y1="16.08744"
       x2="42.136906"
       y2="65.220543"
       gradientTransform="matrix(0.53703847,0,0,0.53703847,-92.296584,10.337222)" /><linearGradient
       xlink:href="#linearGradient32631"
       id="linearGradient35583"
       gradientUnits="userSpaceOnUse"
       x1="83.761292"
       y1="16.08744"
       x2="42.136906"
       y2="65.220543"
       gradientTransform="matrix(0.53703847,0,0,0.53703847,92.296584,10.337222)" /><linearGradient
       xlink:href="#linearGradient32631"
       id="linearGradient35585"
       gradientUnits="userSpaceOnUse"
       x1="83.761292"
       y1="16.08744"
       x2="42.136906"
       y2="65.220543"
       gradientTransform="matrix(0.53703847,0,0,0.53703847,92.296584,10.337222)" /></defs><g
     id="layer1"
     transform="translate(-83.03532,-50.364094)"><g
       id="g524"
       transform="translate(-18.826941,28.950744)"><path
         style="fill:url(#linearGradient35539);fill-opacity:1;stroke:#ffffff;stroke-width:0.722999;stroke-dasharray:none"
         d="m 119.15146,23.853668 c 0,0 0,29.753325 0,29.753325 0,0 -3.91457,2.260078 -3.91457,2.260078 0,0 -8.19051,-4.728792 -8.19051,-4.728792 0,0 0,-4.592992 0,-4.592992 0,0 -4.82262,-2.784337 -4.82262,-2.784337 0,0 0,-9.267643 0,-9.267643 0,0 5.02114,-2.898958 5.02114,-2.898958 0,0 0,-5.292622 0,-5.292622 0,0 7.75792,-4.479032 7.75792,-4.479032 0,0 4.14864,2.030973 4.14864,2.030973 z"
         id="path13606-0-9" /><path
         style="fill:url(#linearGradient35541);fill-opacity:1;stroke:#ffffff;stroke-width:0.722999;stroke-dasharray:none"
         d="m 112.74884,28.843942 c 0,0 2.34715,1.355123 2.34715,1.355123 0,0 0,4.953335 0,4.953335 0,0 -3.7275,2.15207 -3.7275,2.15207 0,0 0,4.815481 0,4.815481 0,0 3.24117,1.871292 3.24117,1.871292 0,0 0,4.625479 0,4.625479 0,0 -2.39011,1.379929 -2.39011,1.379929"
         id="path14399-6-3" /><path
         style="fill:url(#linearGradient35543);fill-opacity:1;stroke:#ffffff;stroke-width:0.722999;stroke-dasharray:none"
         d="m 107.09947,31.292 c 0,0 2.74101,1.582516 2.74101,1.582516"
         id="path14403-6-45" /><path
         style="fill:url(#linearGradient35545);fill-opacity:1;stroke:#ffffff;stroke-width:0.722999;stroke-dasharray:none"
         d="m 106.6287,46.733599 c 0,0 2.58884,-1.494667 2.58884,-1.494667"
         id="path14407-7-4" /><path
         style="fill:url(#linearGradient35547);fill-opacity:1;stroke:#ffffff;stroke-width:0.722999;stroke-dasharray:none"
         d="m 102.20336,39.389423 c 0,0 3.01299,0 3.01299,0"
         id="path14411-3-1" /><path
         style="fill:url(#linearGradient35549);fill-opacity:1;stroke:#ffffff;stroke-width:0.722999;stroke-dasharray:none"
         d="m 119.24561,39.389423 c 0,0 -3.10715,0 -3.10715,0"
         id="path14415-1-6" /><circle
         style="fill:url(#linearGradient35551);fill-opacity:1;stroke:#ffffff;stroke-width:0.722999;stroke-dasharray:none"
         id="path16072-52"
         cx="112.48649"
         cy="28.66293"
         r="0.5002988" /><circle
         style="fill:url(#linearGradient35553);fill-opacity:1;stroke:#ffffff;stroke-width:0.722999;stroke-dasharray:none"
         id="path16072-7-8"
         cx="115.86534"
         cy="39.332123"
         r="0.5002988" /><circle
         style="fill:url(#linearGradient35555);fill-opacity:1;stroke:#ffffff;stroke-width:0.722999;stroke-dasharray:none"
         id="path16072-53-7"
         cx="112.03709"
         cy="50.084534"
         r="0.5002988" /><circle
         style="fill:url(#linearGradient35557);fill-opacity:1;stroke:#ffffff;stroke-width:0.722999;stroke-dasharray:none"
         id="path16072-17-8"
         cx="109.5071"
         cy="44.99128"
         r="0.5002988" /><circle
         style="fill:url(#linearGradient35559);fill-opacity:1;stroke:#ffffff;stroke-width:0.722999;stroke-dasharray:none"
         id="path16072-56-8"
         cx="105.54568"
         cy="39.332119"
         r="0.5002988" /><path
         style="fill:url(#linearGradient35561);fill-opacity:1;stroke:#ffffff;stroke-width:0.722999;stroke-dasharray:none"
         d="m 119.14269,23.892223 c 0,0 0,29.753325 0,29.753325 0,0 3.91457,2.260078 3.91457,2.260078 0,0 8.19051,-4.728792 8.19051,-4.728792 0,0 0,-4.592992 0,-4.592992 0,0 4.82262,-2.784338 4.82262,-2.784338 0,0 0,-9.267642 0,-9.267642 0,0 -5.02115,-2.898959 -5.02115,-2.898959 0,0 0,-5.292621 0,-5.292621 0,0 -7.75791,-4.479033 -7.75791,-4.479033 0,0 -4.14864,2.030974 -4.14864,2.030974 z"
         id="path13606-0-7-4" /><path
         style="fill:url(#linearGradient35563);fill-opacity:1;stroke:#ffffff;stroke-width:0.722999;stroke-dasharray:none"
         d="m 125.5453,28.882497 c 0,0 -2.34714,1.355123 -2.34714,1.355123 0,0 0,4.953334 0,4.953334 0,0 3.7275,2.152071 3.7275,2.152071 0,0 0,4.81548 0,4.81548 0,0 -3.24117,1.871292 -3.24117,1.871292 0,0 0,4.625479 0,4.625479 0,0 2.3901,1.37993 2.3901,1.37993"
         id="path14399-6-7-3" /><path
         style="fill:url(#linearGradient35565);fill-opacity:1;stroke:#ffffff;stroke-width:0.722999;stroke-dasharray:none"
         d="m 131.19467,31.330554 c 0,0 -2.741,1.582516 -2.741,1.582516"
         id="path14403-6-4-4" /><path
         style="fill:url(#linearGradient35567);fill-opacity:1;stroke:#ffffff;stroke-width:0.722999;stroke-dasharray:none"
         d="m 131.66545,46.772153 c 0,0 -2.58884,-1.494666 -2.58884,-1.494666"
         id="path14407-7-0-2" /><path
         style="fill:url(#linearGradient35569);fill-opacity:1;stroke:#ffffff;stroke-width:0.722999;stroke-dasharray:none"
         d="m 136.09079,39.427978 c 0,0 -3.013,0 -3.013,0"
         id="path14411-3-6-9" /><path
         style="fill:url(#linearGradient35571);fill-opacity:1;stroke:#ffffff;stroke-width:0.722999;stroke-dasharray:none"
         d="m 119.04853,39.427978 c 0,0 3.10716,0 3.10716,0"
         id="path14415-1-1-0" /><circle
         style="fill:url(#linearGradient35573);fill-opacity:1;stroke:#ffffff;stroke-width:0.722999;stroke-dasharray:none"
         id="path16072-38-0"
         cx="-125.80766"
         cy="28.701485"
         r="0.5002988"
         transform="scale(-1,1)" /><circle
         style="fill:url(#linearGradient35575);fill-opacity:1;stroke:#ffffff;stroke-width:0.722999;stroke-dasharray:none"
         id="path16072-7-3-5"
         cx="-122.4288"
         cy="39.370674"
         r="0.5002988"
         transform="scale(-1,1)" /><circle
         style="fill:url(#linearGradient35577);fill-opacity:1;stroke:#ffffff;stroke-width:0.722999;stroke-dasharray:none"
         id="path16072-53-4-3"
         cx="-126.25706"
         cy="50.123089"
         r="0.5002988"
         transform="scale(-1,1)" /><circle
         style="fill:url(#linearGradient35579);fill-opacity:1;stroke:#ffffff;stroke-width:0.722999;stroke-dasharray:none"
         id="path16072-17-5-5"
         cx="-128.78705"
         cy="45.029839"
         r="0.5002988"
         transform="scale(-1,1)" /><circle
         style="fill:url(#linearGradient35581);fill-opacity:1;stroke:#ffffff;stroke-width:0.722999;stroke-dasharray:none"
         id="path16072-56-7-0"
         cx="-132.74846"
         cy="39.370674"
         r="0.5002988"
         transform="scale(-1,1)" /><circle
         style="fill:url(#linearGradient35583);fill-opacity:1;stroke:#ffffff;stroke-width:0.722999;stroke-dasharray:none"
         id="path16072-58-3"
         cx="128.24893"
         cy="32.874012"
         r="0.5002988" /><circle
         style="fill:url(#linearGradient35585);fill-opacity:1;stroke:#ffffff;stroke-width:0.722999;stroke-dasharray:none"
         id="path16072-1-1"
         cx="110.10358"
         cy="33.032391"
         r="0.5002988" /></g></g></svg>
